<?xml version="1.0" encoding="UTF-8" standalone="no"?>
<svg
   xmlns:dc="http://purl.org/dc/elements/1.1/"
   xmlns:cc="http://creativecommons.org/ns#"
   xmlns:rdf="http://www.w3.org/1999/02/22-rdf-syntax-ns#"
   xmlns:svg="http://www.w3.org/2000/svg"
   xmlns="http://www.w3.org/2000/svg"
   xmlns:sodipodi="http://sodipodi.sourceforge.net/DTD/sodipodi-0.dtd"
   xmlns:inkscape="http://www.inkscape.org/namespaces/inkscape"
   version="1.1"
   x="0px"
   y="0px"
   viewBox="0 0 100 100"
   enable-background="new 0 0 100 100"
   xml:space="preserve"
   id="svg2"
   inkscape:version="0.91 r13725"
   sodipodi:docname="cafe_futuro_w.svg"
   width="100"
   height="100"><metadata
     id="metadata14"><rdf:RDF><cc:Work
         rdf:about=""><dc:format>image/svg+xml</dc:format><dc:type
           rdf:resource="http://purl.org/dc/dcmitype/StillImage" /><dc:title /></cc:Work></rdf:RDF></metadata><defs
     id="defs12" /><sodipodi:namedview
     pagecolor="#ffffff"
     bordercolor="#666666"
     borderopacity="1"
     objecttolerance="10"
     gridtolerance="10"
     guidetolerance="10"
     inkscape:pageopacity="0"
     inkscape:pageshadow="2"
     inkscape:window-width="1219"
     inkscape:window-height="731"
     id="namedview10"
     showgrid="false"
     inkscape:zoom="4.8705125"
     inkscape:cx="51.377119"
     inkscape:cy="61.705508"
     inkscape:window-x="35"
     inkscape:window-y="0"
     inkscape:window-maximized="0"
     inkscape:current-layer="svg2"
     showguides="true"
     inkscape:guide-bbox="true" /><g
     id="g4155"><path
       id="path4"
       d="M 49.351562 16.886719 C 45.904379 16.850831 42.394198 17.568887 39.064453 19.130859 C 27.217298 24.688667 22.12228 38.787089 27.677734 50.630859 C 33.230836 62.471243 47.334923 67.578982 59.183594 62.019531 C 71.021173 56.467493 76.116536 42.355655 70.5625 30.515625 C 66.568428 22.004098 58.161031 16.978433 49.351562 16.886719 z M 46.605469 35 C 47.974252 35.095062 49.607714 36.13205 50.753906 36.75 C 52.282163 37.573933 54.908403 38.71179 54.958984 40.447266 C 55.009566 42.182741 52.454237 43.475176 50.976562 44.386719 C 49.498888 45.298261 47.198179 47.001667 45.669922 46.177734 C 44.141665 45.353802 44.302535 42.495241 44.251953 40.759766 C 44.201371 39.02429 43.873888 36.181074 45.351562 35.269531 C 45.720981 35.041646 46.149208 34.968313 46.605469 35 z "
       style="fill:#ffffff" /><g
       transform="matrix(-0.9350548,0.3545032,0.3545032,0.9350548,79.925721,-22.761102)"
       id="g6"
       style="fill:#ffffff"><path
         inkscape:connector-curvature="0"
         id="path8"
         d="m 73.598,69.495 c -9.943,10.486 -25.157,12.818 -37.2,5.801 l -4.478,4.722 c -2.995,3.158 -8.007,3.284 -11.164,0.29 C 17.599,77.314 17.465,72.31 20.46,69.152 l 4.527,-4.773 C 17.694,52.499 19.257,37.301 28.911,27.12 40.6,14.793 60.124,14.28 72.44,25.959 84.757,37.64 85.287,57.169 73.598,69.495 Z m -51.42,1.285 c -2.092,2.207 -2.006,5.713 0.207,7.812 2.212,2.097 5.719,1.998 7.812,-0.209 l 5.127,-5.407 c 0.378,-0.398 0.985,-0.481 1.462,-0.204 l 0.262,0.15 c 11.185,6.856 25.507,4.771 34.829,-5.06 C 82.658,56.492 82.179,38.466 70.808,27.683 59.436,16.9 41.409,17.377 30.627,28.747 c -9.101,9.598 -10.41,24.025 -3.186,35.083 0.228,0.349 0.256,0.787 0.079,1.165 l -0.074,0.142 c -0.055,0.111 -0.123,0.217 -0.204,0.302 l -5.064,5.341 z"
         style="fill:#ffffff" /></g></g><text
     xml:space="preserve"
     style="font-style:normal;font-weight:normal;font-size:40px;line-height:125%;font-family:sans-serif;letter-spacing:0px;word-spacing:0px;fill:#ffffff;fill-opacity:1;stroke:none;stroke-width:1px;stroke-linecap:butt;stroke-linejoin:miter;stroke-opacity:1"
     x="5.5285001"
     y="92.055084"
     id="text4147"
     sodipodi:linespacing="125%"><tspan
       sodipodi:role="line"
       id="tspan4149"
       x="5.5285001"
       y="92.055084"
       style="font-style:normal;font-variant:normal;font-weight:300;font-stretch:normal;font-size:17.5px;font-family:'American Typewriter';-inkscape-font-specification:'American Typewriter Light';fill:#ffffff">café futuro</tspan></text>
</svg>