<?xml version="1.0" encoding="UTF-8" standalone="no"?>
<svg
   xmlns:dc="http://purl.org/dc/elements/1.1/"
   xmlns:cc="http://creativecommons.org/ns#"
   xmlns:rdf="http://www.w3.org/1999/02/22-rdf-syntax-ns#"
   xmlns:svg="http://www.w3.org/2000/svg"
   xmlns="http://www.w3.org/2000/svg"
   xmlns:sodipodi="http://sodipodi.sourceforge.net/DTD/sodipodi-0.dtd"
   xmlns:inkscape="http://www.inkscape.org/namespaces/inkscape"
   version="1.1"
   x="0px"
   y="0px"
   viewBox="0 0 100 100"
   enable-background="new 0 0 100 100"
   xml:space="preserve"
   id="svg2"
   inkscape:version="0.91 r13725"
   sodipodi:docname="cafe_futuro_b.svg"
   width="100"
   height="100"><metadata
     id="metadata14"><rdf:RDF><cc:Work
         rdf:about=""><dc:format>image/svg+xml</dc:format><dc:type
           rdf:resource="http://purl.org/dc/dcmitype/StillImage" /><dc:title /></cc:Work></rdf:RDF></metadata><defs
     id="defs12" /><sodipodi:namedview
     pagecolor="#ffffff"
     bordercolor="#666666"
     borderopacity="1"
     objecttolerance="10"
     gridtolerance="10"
     guidetolerance="10"
     inkscape:pageopacity="0"
     inkscape:pageshadow="2"
     inkscape:window-width="1219"
     inkscape:window-height="731"
     id="namedview10"
     showgrid="false"
     inkscape:zoom="1.888"
     inkscape:cx="86.326469"
     inkscape:cy="62.5"
     inkscape:window-x="0"
     inkscape:window-y="46"
     inkscape:window-maximized="0"
     inkscape:current-layer="svg2" /><g
     id="g4142"
     transform="matrix(-0.9350548,0.3545032,0.3545032,0.9350548,88.788301,0.6152677)"><path
       inkscape:connector-curvature="0"
       id="path4"
       d="M 53.058,-0.313 C 40.019,-1.309 28.64,8.454 27.642,21.497 26.646,34.537 36.412,45.926 49.449,46.921 62.499,47.919 73.877,38.144 74.872,25.104 75.868,12.06 66.106,0.684 53.058,-0.313 Z m 15.924,25.826 c -0.09,0.01 -0.18,0.015 -0.266,0.008 C 68.184,25.48 67.714,25.064 67.637,24.504 66.653,17.539 62.368,11.354 56.167,7.955 55.603,7.642 55.384,6.924 55.702,6.349 c 0.317,-0.575 1.028,-0.787 1.605,-0.47 6.842,3.751 11.577,10.594 12.678,18.292 0.097,0.653 -0.36,1.252 -1.003,1.342 z" /><g
       transform="translate(0,-25)"
       id="g6"><path
         inkscape:connector-curvature="0"
         id="path8"
         d="m 73.598,69.495 c -9.943,10.486 -25.157,12.818 -37.2,5.801 l -4.478,4.722 c -2.995,3.158 -8.007,3.284 -11.164,0.29 C 17.599,77.314 17.465,72.31 20.46,69.152 l 4.527,-4.773 C 17.694,52.499 19.257,37.301 28.911,27.12 40.6,14.793 60.124,14.28 72.44,25.959 84.757,37.64 85.287,57.169 73.598,69.495 Z m -51.42,1.285 c -2.092,2.207 -2.006,5.713 0.207,7.812 2.212,2.097 5.719,1.998 7.812,-0.209 l 5.127,-5.407 c 0.378,-0.398 0.985,-0.481 1.462,-0.204 l 0.262,0.15 c 11.185,6.856 25.507,4.771 34.829,-5.06 C 82.658,56.492 82.179,38.466 70.808,27.683 59.436,16.9 41.409,17.377 30.627,28.747 c -9.101,9.598 -10.41,24.025 -3.186,35.083 0.228,0.349 0.256,0.787 0.079,1.165 l -0.074,0.142 c -0.055,0.111 -0.123,0.217 -0.204,0.302 l -5.064,5.341 z" /></g></g><text
     xml:space="preserve"
     style="font-style:normal;font-weight:normal;font-size:40px;line-height:125%;font-family:sans-serif;letter-spacing:0px;word-spacing:0px;fill:#000000;fill-opacity:1;stroke:none;stroke-width:1px;stroke-linecap:butt;stroke-linejoin:miter;stroke-opacity:1"
     x="5.5285001"
     y="92.055084"
     id="text4147"
     sodipodi:linespacing="125%"><tspan
       sodipodi:role="line"
       id="tspan4149"
       x="5.5285001"
       y="92.055084"
       style="font-style:normal;font-variant:normal;font-weight:300;font-stretch:normal;font-size:17.5px;font-family:'American Typewriter';-inkscape-font-specification:'American Typewriter Light'">café futuro</tspan></text>
</svg>